<?xml version="1.0" encoding="UTF-8" standalone="no"?>
<svg
   height="16px"
   viewBox="0 0 16 16"
   width="16px"
   version="1.1"
   id="svg2"
   sodipodi:docname="vertical-arrows-up-none-symbolic.svg"
   inkscape:version="1.4.1 (1:1.4.1+202503302257+93de688d07)"
   xmlns:inkscape="http://www.inkscape.org/namespaces/inkscape"
   xmlns:sodipodi="http://sodipodi.sourceforge.net/DTD/sodipodi-0.dtd"
   xmlns="http://www.w3.org/2000/svg"
   xmlns:svg="http://www.w3.org/2000/svg">
  <defs
     id="defs2" />
  <sodipodi:namedview
     id="namedview2"
     pagecolor="#ffffff"
     bordercolor="#000000"
     borderopacity="0.25"
     inkscape:showpageshadow="2"
     inkscape:pageopacity="0.0"
     inkscape:pagecheckerboard="0"
     inkscape:deskcolor="#d1d1d1"
     showgrid="true"
     inkscape:zoom="42.900985"
     inkscape:cx="7.0278106"
     inkscape:cy="7.9368807"
     inkscape:window-width="1870"
     inkscape:window-height="1011"
     inkscape:window-x="0"
     inkscape:window-y="0"
     inkscape:window-maximized="1"
     inkscape:current-layer="svg2">
    <inkscape:grid
       id="grid2"
       units="px"
       originx="0"
       originy="0"
       spacingx="1"
       spacingy="1"
       empcolor="#0099e5"
       empopacity="0.30196078"
       color="#0099e5"
       opacity="0.14901961"
       empspacing="5"
       enabled="true"
       visible="true" />
  </sodipodi:namedview>
  <path
     d="M 4.5,1.7968747 C 2.8624907,3.3556344 2.3182365,3.8303217 0.7304688,5.6621091 l 0.703125,0.7011718 C 2.5984038,5.0206862 3.0656737,4.5804955 4,3.7402341 V 10 H 5 V 3.7402341 C 5.9343264,4.5804954 6.4015961,5.0206863 7.5664063,6.3632809 L 8.2695314,5.6621091 C 6.6817636,3.8303218 6.1375093,3.3556345 4.5,1.7968747 Z"
     style="fill:#808080;stroke-width:4;opacity:0.5"
     id="path10"
     sodipodi:nodetypes="cccccccccc" />
  <path
     d="m 11.5,14.203125 c 1.63751,-1.55876 2.181764,-2.033447 3.769532,-3.865234 L 14.566407,9.6367188 C 13.401596,10.979314 12.934327,11.419504 12,12.259766 V 6 h -1 v 6.259766 C 10.065674,11.419504 9.5984035,10.979314 8.4335935,9.6367188 l -0.703125,0.7011722 c 1.587768,1.831787 2.132022,2.306474 3.7695315,3.865234 z"
     style="fill:#808080;stroke-width:4;opacity:1"
     id="path10-2"
     sodipodi:nodetypes="cccccccccc" />
</svg>
